<svg id="Layer_1" data-name="Layer 1" xmlns="http://www.w3.org/2000/svg" viewBox="0 0 251.64 30.54"><defs><style>.cls-1{fill:#36723f;}.cls-2{fill:#231f20;}.cls-3{fill:#fff;}.cls-4{fill:none;stroke:#231f20;stroke-linecap:round;stroke-miterlimit:10;stroke-width:3px;}</style></defs><path class="cls-1" d="M569.51,650.73l6.31,15.41h.25l6.31-15.41h5.84v22.73h-4.58V658.58h-.19l-5.93,14.79h-3.14l-5.94-14.86h-.19v15h-4.58V650.73Z" transform="translate(-563.67 -649.68)"/><path class="cls-1" d="M595.2,672.74a7.2,7.2,0,0,1-2.91-3,11.16,11.16,0,0,1,0-9.3,7.44,7.44,0,0,1,2.88-3.1,8.43,8.43,0,0,1,4.34-1.1,8.53,8.53,0,0,1,4.1,1,6.87,6.87,0,0,1,2.86,2.91,10,10,0,0,1,1,4.76v1.31H595.85a4.84,4.84,0,0,0,.48,2.22,3.43,3.43,0,0,0,1.37,1.45,4.08,4.08,0,0,0,2.08.51,4,4,0,0,0,2-.46,2.7,2.7,0,0,0,1.19-1.27h4.43a6,6,0,0,1-1.35,2.75,6.68,6.68,0,0,1-2.65,1.82,9.93,9.93,0,0,1-3.7.65A9,9,0,0,1,595.2,672.74Zm7.91-9.52a3.64,3.64,0,0,0-.45-1.82,3.32,3.32,0,0,0-1.25-1.27,3.64,3.64,0,0,0-1.82-.45,3.72,3.72,0,0,0-1.88.47,3.55,3.55,0,0,0-1.33,1.28,3.66,3.66,0,0,0-.53,1.79Z" transform="translate(-563.67 -649.68)"/><path class="cls-1" d="M638,673.46h-4.65V656.41h4.43v3H638a4.81,4.81,0,0,1,1.93-2.35,5.8,5.8,0,0,1,3.19-.85,6.16,6.16,0,0,1,3.11.77,5.1,5.1,0,0,1,2.06,2.22,7.49,7.49,0,0,1,.7,3.42v10.86h-4.61V663.41a3.48,3.48,0,0,0-.82-2.46,2.89,2.89,0,0,0-2.26-.9,3.12,3.12,0,0,0-2.38,1,3.62,3.62,0,0,0-.88,2.6Z" transform="translate(-563.67 -649.68)"/><path class="cls-1" d="M656.22,679.55a6.25,6.25,0,0,1-2.71-1.86,5,5,0,0,1-1.13-2.82H657a2.06,2.06,0,0,0,1.07,1.49,4.78,4.78,0,0,0,2.32.49,4,4,0,0,0,2.66-.79,3.09,3.09,0,0,0,1-2.5v-3.11h-.22a4.63,4.63,0,0,1-1.75,2,5.6,5.6,0,0,1-3.12.79,6.8,6.8,0,0,1-3.54-.93,6.42,6.42,0,0,1-2.48-2.82,10.56,10.56,0,0,1-.91-4.63,11,11,0,0,1,.92-4.75,6.71,6.71,0,0,1,2.51-2.92,6.61,6.61,0,0,1,3.5-1,5,5,0,0,1,3.11.9,5.53,5.53,0,0,1,1.76,2.18h.19v-2.86h4.62v17.24a6,6,0,0,1-1.06,3.59,6.35,6.35,0,0,1-2.92,2.23,11.69,11.69,0,0,1-4.31.74A11.31,11.31,0,0,1,656.22,679.55ZM663,668.44a5.78,5.78,0,0,0,1-3.55,6.15,6.15,0,0,0-1-3.65,3.33,3.33,0,0,0-5.35,0,6.28,6.28,0,0,0-.94,3.64,6,6,0,0,0,.93,3.54,3.44,3.44,0,0,0,5.36,0Z" transform="translate(-563.67 -649.68)"/><path class="cls-2" d="M627.14,661.29a6.42,6.42,0,0,0-2.53-2.68,8.35,8.35,0,0,0-7.7,0,6.33,6.33,0,0,0-2.52,2.68,9.58,9.58,0,0,0,0,8,6.48,6.48,0,0,0,2.52,2.69,8.28,8.28,0,0,0,7.7,0,6.44,6.44,0,0,0,2.53-2.69,9.48,9.48,0,0,0,0-8Z" transform="translate(-563.67 -649.68)"/><circle class="cls-3" cx="60.22" cy="13" r="1.55"/><circle cx="48.73" cy="2.78" r="2.62"/><circle class="cls-3" cx="50.02" cy="2.94" r="0.7"/><circle cx="56.54" cy="2.62" r="2.62"/><circle class="cls-3" cx="57.83" cy="2.78" r="0.7"/><path class="cls-4" d="M619.85,668.17s3,7.76-4.85,7.76" transform="translate(-563.67 -649.68)"/><path class="cls-4" d="M622.84,668.17s-3,7.76,4.85,7.76" transform="translate(-563.67 -649.68)"/><path class="cls-3" d="M716.26,650.73l6.31,15.41h.25l6.31-15.41H735v22.73h-4.58V658.58h-.19l-5.93,14.79h-3.14l-5.94-14.86H715v15h-4.58V650.73Z" transform="translate(-563.67 -649.68)"/><path class="cls-3" d="M742,672.74a7.2,7.2,0,0,1-2.91-3,11.16,11.16,0,0,1,0-9.3,7.44,7.44,0,0,1,2.88-3.1,8.43,8.43,0,0,1,4.34-1.1,8.53,8.53,0,0,1,4.1,1,6.87,6.87,0,0,1,2.86,2.91,10,10,0,0,1,1,4.76v1.31H742.6a4.84,4.84,0,0,0,.48,2.22,3.43,3.43,0,0,0,1.37,1.45,4.08,4.08,0,0,0,2.08.51,4,4,0,0,0,2-.46,2.7,2.7,0,0,0,1.19-1.27h4.43a6,6,0,0,1-1.35,2.75,6.68,6.68,0,0,1-2.65,1.82,9.93,9.93,0,0,1-3.7.65A9,9,0,0,1,742,672.74Zm7.91-9.52a3.64,3.64,0,0,0-.45-1.82,3.32,3.32,0,0,0-1.25-1.27,3.64,3.64,0,0,0-1.82-.45,3.72,3.72,0,0,0-1.88.47,3.55,3.55,0,0,0-1.33,1.28,3.66,3.66,0,0,0-.53,1.79Z" transform="translate(-563.67 -649.68)"/><path class="cls-3" d="M784.79,673.46h-4.65V656.41h4.43v3h.18a4.81,4.81,0,0,1,1.93-2.35,5.8,5.8,0,0,1,3.19-.85A6.16,6.16,0,0,1,793,657a5.1,5.1,0,0,1,2.06,2.22,7.49,7.49,0,0,1,.7,3.42v10.86h-4.61V663.41a3.48,3.48,0,0,0-.82-2.46,2.89,2.89,0,0,0-2.26-.9,3.12,3.12,0,0,0-2.38,1,3.62,3.62,0,0,0-.88,2.6Z" transform="translate(-563.67 -649.68)"/><path class="cls-3" d="M803,679.55a6.25,6.25,0,0,1-2.71-1.86,5,5,0,0,1-1.13-2.82h4.59a2.06,2.06,0,0,0,1.07,1.49,4.78,4.78,0,0,0,2.32.49,4,4,0,0,0,2.66-.79,3.09,3.09,0,0,0,1-2.5v-3.11h-.22a4.63,4.63,0,0,1-1.75,2,5.6,5.6,0,0,1-3.12.79,6.8,6.8,0,0,1-3.54-.93,6.42,6.42,0,0,1-2.48-2.82,10.56,10.56,0,0,1-.91-4.63,11,11,0,0,1,.92-4.75,6.71,6.71,0,0,1,2.51-2.92,6.61,6.61,0,0,1,3.5-1,5,5,0,0,1,3.11.9,5.53,5.53,0,0,1,1.76,2.18h.19v-2.86h4.62v17.24a6,6,0,0,1-1.06,3.59,6.35,6.35,0,0,1-2.92,2.23,11.69,11.69,0,0,1-4.31.74A11.31,11.31,0,0,1,803,679.55Zm6.79-11.11a5.78,5.78,0,0,0,1-3.55,6.15,6.15,0,0,0-1-3.65,3.33,3.33,0,0,0-5.35,0,6.28,6.28,0,0,0-.94,3.64,6,6,0,0,0,.93,3.54,3.44,3.44,0,0,0,5.36,0Z" transform="translate(-563.67 -649.68)"/><path class="cls-2" d="M773.89,661.29a6.42,6.42,0,0,0-2.53-2.68,8.35,8.35,0,0,0-7.7,0,6.33,6.33,0,0,0-2.52,2.68,9.58,9.58,0,0,0,0,8,6.48,6.48,0,0,0,2.52,2.69,8.28,8.28,0,0,0,7.7,0,6.44,6.44,0,0,0,2.53-2.69,9.48,9.48,0,0,0,0-8Z" transform="translate(-563.67 -649.68)"/><circle class="cls-3" cx="206.97" cy="13" r="1.55"/><circle cx="195.48" cy="2.78" r="2.62"/><circle class="cls-3" cx="196.77" cy="2.94" r="0.7"/><circle cx="203.29" cy="2.62" r="2.62"/><circle class="cls-3" cx="204.58" cy="2.78" r="0.7"/><path class="cls-4" d="M766.6,668.17s3,7.76-4.85,7.76" transform="translate(-563.67 -649.68)"/><path class="cls-4" d="M769.59,668.17s-3,7.76,4.85,7.76" transform="translate(-563.67 -649.68)"/></svg>