<svg id="Layer_1" data-name="Layer 1" xmlns="http://www.w3.org/2000/svg" viewBox="0 0 104 30"><defs><style>.cls-1{fill:#36723f;}.cls-2{fill:#231f20;}.cls-3{fill:#fff;}.cls-4{fill:none;stroke:#231f20;stroke-linecap:round;stroke-miterlimit:10;stroke-width:3px;}</style></defs><path class="cls-1" d="M5.92,1.38l6.26,15.15h.25L18.69,1.38h5.79V23.71H19.93V9.09h-.18L13.86,23.62H10.75L4.87,9H4.68V23.71H.13V1.38Z" transform="translate(-0.13 -0.35)"/><path class="cls-1" d="M31.4,23a7.15,7.15,0,0,1-2.89-3,9.89,9.89,0,0,1-1-4.59,9.85,9.85,0,0,1,1-4.54,7.24,7.24,0,0,1,2.86-3,8.4,8.4,0,0,1,4.3-1.08,8.52,8.52,0,0,1,4.07,1,6.73,6.73,0,0,1,2.83,2.86,9.68,9.68,0,0,1,1,4.67v1.3H32.05a4.66,4.66,0,0,0,.47,2.17,3.45,3.45,0,0,0,1.35,1.43,4.17,4.17,0,0,0,2.07.5,4,4,0,0,0,2-.46,2.62,2.62,0,0,0,1.18-1.24h4.39a5.84,5.84,0,0,1-1.34,2.7,6.61,6.61,0,0,1-2.62,1.79,10,10,0,0,1-3.67.63A8.94,8.94,0,0,1,31.4,23Zm7.84-9.34a3.59,3.59,0,0,0-.45-1.8,3.12,3.12,0,0,0-1.23-1.24,3.63,3.63,0,0,0-1.81-.45,3.85,3.85,0,0,0-1.86.46,3.43,3.43,0,0,0-1.32,1.27,3.48,3.48,0,0,0-.52,1.76Z" transform="translate(-0.13 -0.35)"/><path class="cls-1" d="M73.87,23.71H69.26V7h4.39V9.89h.19a4.72,4.72,0,0,1,1.91-2.31,5.8,5.8,0,0,1,3.16-.83A6.18,6.18,0,0,1,82,7.5a5.12,5.12,0,0,1,2,2.18,7.39,7.39,0,0,1,.7,3.36V23.71H80.16V13.84a3.44,3.44,0,0,0-.81-2.42,2.89,2.89,0,0,0-2.24-.88,3.1,3.1,0,0,0-2.36.93A3.54,3.54,0,0,0,73.87,14Z" transform="translate(-0.13 -0.35)"/><path class="cls-1" d="M91.9,29.7a6.25,6.25,0,0,1-2.69-1.83A4.9,4.9,0,0,1,88.1,25.1h4.54a2.05,2.05,0,0,0,1.07,1.46A4.79,4.79,0,0,0,96,27a4.09,4.09,0,0,0,2.64-.77,3,3,0,0,0,.94-2.46V20.75h-.22a4.53,4.53,0,0,1-1.74,1.94,5.58,5.58,0,0,1-3.09.78A6.79,6.79,0,0,1,91,22.55a6.31,6.31,0,0,1-2.46-2.77,10.19,10.19,0,0,1-.91-4.55,10.75,10.75,0,0,1,.92-4.66,6.35,6.35,0,0,1,6-3.82,5,5,0,0,1,3.09.88,5.52,5.52,0,0,1,1.74,2.14h.19V7h4.57V23.9a5.92,5.92,0,0,1-1,3.53,6.32,6.32,0,0,1-2.9,2.18,11.52,11.52,0,0,1-4.28.74A11.35,11.35,0,0,1,91.9,29.7Zm6.74-10.91a5.73,5.73,0,0,0,1-3.5,6,6,0,0,0-1-3.58A3.1,3.1,0,0,0,96,10.39a3,3,0,0,0-2.65,1.33,6.14,6.14,0,0,0-.93,3.57,5.8,5.8,0,0,0,.92,3.48A3.08,3.08,0,0,0,96,20,3.17,3.17,0,0,0,98.64,18.79Z" transform="translate(-0.13 -0.35)"/><path class="cls-2" d="M63.07,11.76a6.19,6.19,0,0,0-2.51-2.63,8.31,8.31,0,0,0-7.64,0,6.23,6.23,0,0,0-2.5,2.63,8.49,8.49,0,0,0-.87,3.93,8.44,8.44,0,0,0,.88,3.94,6.31,6.31,0,0,0,2.5,2.64,8.21,8.21,0,0,0,7.63,0,6.21,6.21,0,0,0,2.51-2.64A8.44,8.44,0,0,0,64,15.69,8.37,8.37,0,0,0,63.07,11.76Z" transform="translate(-0.13 -0.35)"/><ellipse class="cls-3" cx="59.71" cy="12.77" rx="1.54" ry="1.52"/><ellipse cx="48.32" cy="2.73" rx="2.6" ry="2.58"/><ellipse class="cls-3" cx="49.6" cy="2.89" rx="0.7" ry="0.69"/><ellipse cx="56.06" cy="2.58" rx="2.6" ry="2.58"/><ellipse class="cls-3" cx="57.34" cy="2.73" rx="0.7" ry="0.69"/><path class="cls-4" d="M55.84,18.52s3,7.62-4.81,7.62" transform="translate(-0.13 -0.35)"/><path class="cls-4" d="M58.8,18.52s-3,7.62,4.81,7.62" transform="translate(-0.13 -0.35)"/></svg>