<svg id="Layer_1" data-name="Layer 1" xmlns="http://www.w3.org/2000/svg" viewBox="0 0 104.89 30.54"><defs><style>.cls-1{fill:#36723f;}.cls-2{fill:#231f20;}.cls-3{fill:#fff;}.cls-4{fill:none;stroke:#231f20;stroke-linecap:round;stroke-miterlimit:10;stroke-width:3px;}</style></defs><path class="cls-1" d="M1371.06,1402.78l6.31,15.42h.26l6.31-15.42h5.84v22.74h-4.59v-14.89H1385l-5.93,14.79h-3.14l-5.93-14.85h-.19v15h-4.59v-22.74Z" transform="translate(-1365.22 -1401.73)"/><path class="cls-1" d="M1396.76,1424.8a7.19,7.19,0,0,1-2.92-3.06,11.09,11.09,0,0,1,0-9.29,7.26,7.26,0,0,1,2.88-3.1,8.3,8.3,0,0,1,4.33-1.1,8.65,8.65,0,0,1,4.11,1,6.93,6.93,0,0,1,2.85,2.92,9.87,9.87,0,0,1,1,4.75v1.32h-11.65a4.77,4.77,0,0,0,.48,2.21,3.43,3.43,0,0,0,1.36,1.46,4.11,4.11,0,0,0,2.08.51,4,4,0,0,0,2-.47,2.64,2.64,0,0,0,1.19-1.26h4.43a6,6,0,0,1-1.35,2.75,6.74,6.74,0,0,1-2.64,1.82,10,10,0,0,1-3.7.64A9,9,0,0,1,1396.76,1424.8Zm7.9-9.52a3.7,3.7,0,0,0-.45-1.83,3.13,3.13,0,0,0-1.24-1.26,3.61,3.61,0,0,0-1.83-.46,3.79,3.79,0,0,0-1.87.47,3.69,3.69,0,0,0-1.34,1.29,3.62,3.62,0,0,0-.52,1.79Z" transform="translate(-1365.22 -1401.73)"/><path class="cls-1" d="M1439.59,1425.52h-4.65v-17h4.43v3h.19a4.81,4.81,0,0,1,1.93-2.35,5.78,5.78,0,0,1,3.19-.85,6.06,6.06,0,0,1,3.11.77,5.14,5.14,0,0,1,2,2.22,7.45,7.45,0,0,1,.71,3.41v10.87h-4.62v-10a3.55,3.55,0,0,0-.81-2.47,2.94,2.94,0,0,0-2.26-.89,3.1,3.1,0,0,0-2.38.94,3.67,3.67,0,0,0-.89,2.61Z" transform="translate(-1365.22 -1401.73)"/><path class="cls-1" d="M1457.77,1431.61a6.37,6.37,0,0,1-2.71-1.86,5,5,0,0,1-1.12-2.82h4.58a2.08,2.08,0,0,0,1.08,1.48,4.72,4.72,0,0,0,2.32.5,4.09,4.09,0,0,0,2.66-.79,3.11,3.11,0,0,0,1-2.51v-3.11h-.22a4.58,4.58,0,0,1-1.75,2,5.62,5.62,0,0,1-3.12.8,6.85,6.85,0,0,1-3.55-.94,6.38,6.38,0,0,1-2.48-2.82,10.53,10.53,0,0,1-.91-4.63,11,11,0,0,1,.93-4.74,6.64,6.64,0,0,1,2.5-2.92,6.53,6.53,0,0,1,3.51-1,5.06,5.06,0,0,1,3.11.89,5.77,5.77,0,0,1,1.76,2.18h.18v-2.85h4.62v17.24a6,6,0,0,1-1,3.59,6.39,6.39,0,0,1-2.92,2.22,11.57,11.57,0,0,1-4.32.75A11.31,11.31,0,0,1,1457.77,1431.61Zm6.8-11.11a5.8,5.8,0,0,0,1-3.55,6.15,6.15,0,0,0-1-3.65,3.12,3.12,0,0,0-2.69-1.35,3.08,3.08,0,0,0-2.67,1.36,6.35,6.35,0,0,0-.94,3.64,5.92,5.92,0,0,0,.94,3.54,3.09,3.09,0,0,0,2.67,1.29A3.18,3.18,0,0,0,1464.57,1420.5Z" transform="translate(-1365.22 -1401.73)"/><path class="cls-2" d="M1428.7,1413.35a6.32,6.32,0,0,0-2.54-2.68,8.28,8.28,0,0,0-7.7,0,6.34,6.34,0,0,0-2.52,2.68,8.79,8.79,0,0,0-.88,4,8.68,8.68,0,0,0,.89,4,6.36,6.36,0,0,0,2.52,2.69,8.18,8.18,0,0,0,7.69,0,6.35,6.35,0,0,0,2.54-2.69,9.55,9.55,0,0,0,0-8Z" transform="translate(-1365.22 -1401.73)"/><circle class="cls-3" cx="60.22" cy="13" r="1.55"/><circle cx="48.73" cy="2.78" r="2.62"/><circle class="cls-3" cx="50.02" cy="2.94" r="0.7"/><circle cx="56.54" cy="2.62" r="2.62"/><circle class="cls-3" cx="57.83" cy="2.78" r="0.7"/><path class="cls-4" d="M1421.41,1420.23s3,7.76-4.86,7.76" transform="translate(-1365.22 -1401.73)"/><path class="cls-4" d="M1424.39,1420.23s-3,7.76,4.85,7.76" transform="translate(-1365.22 -1401.73)"/></svg>